<svg width="64" height="64" viewBox="0 0 64 64" fill="none" xmlns="http://www.w3.org/2000/svg">
<circle cx="32" cy="32" r="32" fill="#F1F4F4"/>
<path d="M31.9942 53.9277C30.4695 53.9303 28.9593 53.6316 27.5505 53.0488C26.1416 52.4662 24.8616 51.6107 23.7843 50.5319L9.0728 35.8204C6.90039 33.6419 5.68142 30.6902 5.6836 27.6136C5.68577 24.5371 6.90892 21.5872 9.08443 19.4117C11.2599 17.2363 14.2099 16.0133 17.2866 16.0112C20.363 16.0091 23.3147 17.2282 25.4931 19.4007L40.2045 34.1122C41.8291 35.7353 42.9356 37.8038 43.3841 40.0561C43.8327 42.3083 43.6027 44.643 42.7238 46.7646C41.8446 48.8862 40.356 50.6991 38.446 51.9744C36.5361 53.2495 34.2909 53.9292 31.9944 53.9277H31.9942ZM25.4931 48.8237C27.2217 50.5274 29.5537 51.4784 31.9807 51.4697C34.4076 51.4609 36.7327 50.4928 38.449 48.7766C40.1651 47.0605 41.1332 44.7354 41.1419 42.3085C41.1507 39.8814 40.1996 37.5493 38.4959 35.8208L23.7845 21.1093C22.9329 20.2453 21.9189 19.5584 20.8006 19.0881C19.6825 18.6178 18.4823 18.3734 17.2693 18.369C16.0561 18.3646 14.8541 18.6003 13.7326 19.0625C12.6111 19.5246 11.592 20.2042 10.7343 21.062C9.87649 21.9198 9.19692 22.9388 8.73473 24.0604C8.27255 25.1819 8.03686 26.3839 8.04127 27.5969C8.04567 28.81 8.29006 30.0102 8.76038 31.1284C9.23069 32.2466 9.91762 33.2607 10.7816 34.1122L25.4931 48.8237Z" fill="url(#paint0_linear_207_136)"/>
<path d="M38.4957 19.4007L33.2756 24.6208L34.9842 26.3293L40.2043 21.1093C41.9329 19.4056 44.2649 18.4545 46.692 18.4633C49.1188 18.4721 51.444 19.4401 53.1602 21.1563C54.8763 22.8725 55.8444 25.1975 55.8531 27.6245C55.8619 30.0516 54.9108 32.3836 53.2072 34.1122L49.3056 38.0137L45.6039 41.8133C45.5198 43.0933 45.2946 44.516 44.9622 45.7743L54.9157 35.8208C57.0932 33.6433 58.3165 30.6901 58.3165 27.6107C58.3165 24.5314 57.0932 21.5781 54.9157 19.4007C52.7383 17.2233 49.7851 16 46.7056 16C43.6264 16 40.6732 17.2233 38.4957 19.4007Z" fill="url(#paint1_linear_207_136)"/>
<path d="M40.2043 21.1093L34.9842 26.3293C40.1639 31.36 46.0172 35.5247 45.6039 41.8133L49.3056 38.0137L53.2072 34.1122C54.9108 32.3836 55.8619 30.0516 55.8531 27.6245C55.8444 25.1975 54.8763 22.8725 53.1602 21.1563C51.444 19.4401 49.1188 18.4721 46.692 18.4633C44.2649 18.4545 41.9329 19.4056 40.2043 21.1093Z" fill="url(#paint2_linear_207_136)"/>
<defs>
<linearGradient id="paint0_linear_207_136" x1="-7.05522" y1="29.7672" x2="66.2331" y2="38.6364" gradientUnits="userSpaceOnUse">
<stop offset="0.188488" stop-color="#555759"/>
<stop offset="1" stop-color="#080809"/>
</linearGradient>
<linearGradient id="paint1_linear_207_136" x1="24.8643" y1="26.802" x2="73.4614" y2="31.7472" gradientUnits="userSpaceOnUse">
<stop offset="0.188488" stop-color="#555759"/>
<stop offset="1" stop-color="#080809"/>
</linearGradient>
<linearGradient id="paint2_linear_207_136" x1="24.8643" y1="26.802" x2="73.4614" y2="31.7472" gradientUnits="userSpaceOnUse">
<stop offset="0.188488" stop-color="#555759"/>
<stop offset="1" stop-color="#080809"/>
</linearGradient>
</defs>
</svg>
