<svg width="32" height="32" viewBox="0 0 32 32" fill="none" xmlns="http://www.w3.org/2000/svg">
<path d="M30.6875 8.71255C30.631 8.57645 30.5357 8.46 30.4135 8.37775C30.2912 8.29549 30.1474 8.25108 30 8.25005H26.05C25.5618 7.35334 24.8436 6.60279 23.9693 6.07554C23.0949 5.5483 22.096 5.26338 21.075 5.25005C19.5411 5.24339 18.0669 5.84466 16.9753 6.92229C15.8836 7.99992 15.2632 9.46614 15.25 11.0001V12.0876C9.95003 10.8251 5.57503 6.51255 5.52503 6.47505C5.42867 6.37992 5.30834 6.31266 5.17683 6.2804C5.04532 6.24813 4.90752 6.25208 4.77807 6.29181C4.64862 6.33154 4.53234 6.40558 4.44157 6.50607C4.3508 6.60656 4.28894 6.72974 4.26253 6.86256C3.17503 12.8126 4.96253 16.7876 6.65003 19.0751C7.54503 20.2999 8.64446 21.3612 9.90003 22.2126C7.96253 24.5626 4.77503 25.7876 4.73753 25.8001C4.63103 25.8393 4.53502 25.9025 4.45697 25.9849C4.37892 26.0673 4.32094 26.1666 4.28753 26.2751C4.25206 26.3809 4.2415 26.4935 4.25668 26.604C4.27186 26.7146 4.31236 26.8202 4.37503 26.9126C4.50003 27.1001 5.72503 28.7501 10 28.7501C18.7125 28.7501 26 22.0126 26.7 13.3626L30.525 9.52505C30.6334 9.42347 30.7074 9.29054 30.7365 9.14486C30.7657 8.99917 30.7485 8.84802 30.6875 8.71255ZM25.4375 12.5001C25.3075 12.6298 25.2316 12.804 25.225 12.9876C24.7125 20.9876 18.025 27.2501 10 27.2501C8.26253 27.2501 7.15003 26.9501 6.48753 26.6501C7.90003 25.9376 10.2125 24.5376 11.625 22.4126C11.6813 22.3245 11.7192 22.2259 11.7364 22.1228C11.7535 22.0197 11.7497 21.9141 11.725 21.8126C11.6984 21.7086 11.6501 21.6115 11.5833 21.5274C11.5165 21.4434 11.4328 21.3745 11.3375 21.3251C11.3125 21.3251 9.43753 20.3501 7.81253 18.1251C5.87503 15.4751 5.11253 12.2376 5.53753 8.50005C7.36253 10.0501 11.3 12.9751 15.875 13.7376C15.9827 13.758 16.0936 13.7542 16.1996 13.7264C16.3056 13.6986 16.4041 13.6476 16.4879 13.5769C16.5717 13.5063 16.6388 13.4179 16.6841 13.3181C16.7294 13.2183 16.752 13.1096 16.75 13.0001V11.0001C16.7599 9.86728 17.2177 8.78446 18.0234 7.98814C18.8291 7.19181 19.9172 6.74671 21.05 6.75005C21.8686 6.76187 22.6665 7.00845 23.349 7.46049C24.0315 7.91253 24.5698 8.55101 24.9 9.30006C24.9571 9.4348 25.0529 9.54954 25.1753 9.62967C25.2977 9.7098 25.4412 9.75171 25.5875 9.75005H28.1875L25.4375 12.5001Z" fill="#F9FEFF"/>
</svg>
