<svg width="20" height="20" viewBox="0 0 20 20" fill="none" xmlns="http://www.w3.org/2000/svg">
<path d="M14.7751 6.44157C15.0175 6.19981 15.3157 6.0215 15.6434 5.92241C15.971 5.82333 16.3181 5.80652 16.6538 5.87348C16.9895 5.94043 17.3036 6.08909 17.5682 6.30629C17.8328 6.5235 18.0398 6.80257 18.1709 7.11881C18.302 7.43506 18.3531 7.77873 18.3198 8.11944C18.2865 8.46015 18.1697 8.7874 17.9798 9.07224C17.7899 9.35707 17.5327 9.59072 17.231 9.75253C16.9293 9.91433 16.5924 9.99929 16.2501 9.9999H1.66675M7.99175 3.8249C8.18534 3.63017 8.42404 3.48627 8.68664 3.40602C8.94924 3.32577 9.2276 3.31164 9.49698 3.3649C9.76636 3.41815 10.0184 3.53714 10.2307 3.71128C10.443 3.88541 10.609 4.10931 10.7139 4.36306C10.8189 4.61682 10.8595 4.89256 10.8321 5.16579C10.8048 5.43902 10.7104 5.70126 10.5573 5.9292C10.4042 6.15715 10.1971 6.34373 9.95455 6.47237C9.71195 6.60101 9.44134 6.66772 9.16675 6.66657H1.66675L7.99175 3.8249ZM10.4917 16.1749C10.6853 16.3696 10.924 16.5135 11.1866 16.5938C11.4492 16.674 11.7276 16.6882 11.997 16.6349C12.2664 16.5817 12.5184 16.4627 12.7307 16.2885C12.943 16.1144 13.109 15.8905 13.2139 15.6367C13.3189 15.383 13.3595 15.1072 13.3321 14.834C13.3048 14.5608 13.2104 14.2985 13.0573 14.0706C12.9042 13.8427 12.6971 13.6561 12.4545 13.5274C12.212 13.3988 11.9413 13.3321 11.6667 13.3332H1.66675L10.4917 16.1749Z" stroke="#073871" stroke-width="2" stroke-linecap="round" stroke-linejoin="round"/>
</svg>
