<svg width="32" height="32" viewBox="0 0 32 32" fill="none" xmlns="http://www.w3.org/2000/svg">
<path d="M20.4125 15.3748L14.4125 11.3748C14.2995 11.3004 14.1685 11.258 14.0334 11.2519C13.8982 11.2459 13.764 11.2766 13.6448 11.3406C13.5257 11.4047 13.4261 11.4998 13.3566 11.6158C13.2871 11.7319 13.2502 11.8646 13.25 11.9998V19.9998C13.2501 20.1362 13.2875 20.2699 13.358 20.3867C13.4284 20.5034 13.5294 20.5987 13.65 20.6623C13.7684 20.7262 13.9021 20.7565 14.0365 20.7499C14.1709 20.7433 14.3009 20.7 14.4125 20.6248L20.4125 16.6248C20.5156 16.5564 20.6002 16.4635 20.6588 16.3545C20.7173 16.2454 20.7479 16.1236 20.7479 15.9998C20.7479 15.8761 20.7173 15.7542 20.6588 15.6452C20.6002 15.5361 20.5156 15.4432 20.4125 15.3748ZM14.75 18.5998V13.3998L18.65 15.9998L14.75 18.5998ZM29.05 8.78733C28.9412 8.36545 28.7338 7.97545 28.4447 7.64946C28.1557 7.32347 27.7933 7.07082 27.3875 6.91233C23.125 5.27483 16.2875 5.29983 16 5.29983C15.7125 5.29983 8.875 5.27483 4.6125 6.91233C4.20667 7.07082 3.84431 7.32347 3.55527 7.64946C3.26623 7.97545 3.05877 8.36545 2.95 8.78733C2.625 10.0123 2.25 12.2623 2.25 15.9998C2.25 19.7373 2.625 21.9873 2.95 23.2123C3.05877 23.6342 3.26623 24.0242 3.55527 24.3502C3.84431 24.6762 4.20667 24.9288 4.6125 25.0873C8.875 26.7248 15.7125 26.6998 16 26.6998H16.0875C16.95 26.6998 23.325 26.6498 27.3875 25.0873C27.7933 24.9288 28.1557 24.6762 28.4447 24.3502C28.7338 24.0242 28.9412 23.6342 29.05 23.2123C29.375 21.9873 29.75 19.7373 29.75 15.9998C29.75 12.2623 29.375 10.0123 29.05 8.78733ZM27.6 22.8373C27.5508 23.0281 27.4572 23.2045 27.3269 23.3522C27.1966 23.4999 27.0331 23.6148 26.85 23.6873C22.85 25.2248 16.075 25.1998 16 25.1998C15.925 25.1998 9.15 25.2248 5.15 23.6873C4.96685 23.6148 4.80345 23.4999 4.67311 23.3522C4.54277 23.2045 4.44919 23.0281 4.4 22.8373C4.1 21.6873 3.75 19.5748 3.75 15.9998C3.75 12.4248 4.1 10.3123 4.4 9.16233C4.44919 8.97157 4.54277 8.79514 4.67311 8.64742C4.80345 8.4997 4.96685 8.38489 5.15 8.31233C9.15 6.77483 15.925 6.79983 16 6.79983C16.075 6.79983 22.85 6.77483 26.85 8.31233C27.0331 8.38489 27.1966 8.4997 27.3269 8.64742C27.4572 8.79514 27.5508 8.97157 27.6 9.16233C27.9 10.3123 28.25 12.4248 28.25 15.9998C28.25 19.5748 27.9 21.6873 27.6 22.8373Z" fill="#F9FEFF"/>
</svg>
